#!OML:ASF F:\twosubjects\two\Thursday\Session 1\justin.ASF
:FULLY-SPECIFIED
:DEGREES
611
root 0.255329 17.934 -6.89552 2.57026 -35.3768 361.185
lowerback 2.51828 -0.552495 1.27017
upperback 3.24947 -0.834651 4.4599
thorax 1.97991 -0.468007 3.89049
lowerneck -18.9248 -0.73065 -5.13341
upperneck 30.6185 -1.15158 4.74351
head 13.5636 -0.524816 2.55572
rclavicle -5.52621e-014 -2.8625e-014
rhumerus -35.2342 -13.9688 -58.9424
rradius 30.5396
rwrist -12.8774
rhand -12.4688 8.66575
rfingers 7.12502
rthumb 13.6052 -20.8697
lclavicle -5.52621e-014 -2.8625e-014
lhumerus -38.0941 18.1804 76.8228
lradius 36.203
lwrist -10.9089
lhand -1.30681 35.8062
lfingers 7.12502
lthumb 24.3381 64.2808
rfemur -17.2716 5.34827 13.1234
rtibia 27.004
rfoot -21.7181 1.76265
rtoes -27.057
lfemur -15.647 -3.27816 -10.7405
ltibia 41.3581
lfoot -11.2799 -25.6764
ltoes -14.3168
612
root 0.332636 17.8992 -6.91654 2.17896 -36.8082 361.572
lowerback 2.7377 -0.545454 1.04621
upperback 3.22209 -0.817864 4.39095
thorax 1.82932 -0.462963 3.94734
lowerneck -19.1882 -0.420246 -5.64336
upperneck 31.1762 -0.720537 5.28194
head 13.8338 -0.333639 2.95245
rclavicle 1.39149e-014 1.59028e-014
rhumerus -34.9037 -13.5054 -58.9749
rradius 30.5656
rwrist -12.689
rhand -12.5023 8.53179
rfingers 7.12502
rthumb 13.573 -21.0058
lclavicle 1.39149e-014 1.59028e-014
lhumerus -38.5239 18.7399 77.0041
lradius 34.6815
lwrist -11.9388
lhand -0.697102 36.4093
lfingers 7.12502
lthumb 24.9225 64.8043
rfemur -17.7282 5.74856 12.5828
rtibia 27.2238
rfoot -21.6931 2.38993
rtoes -27.5739
lfemur -15.0564 -3.76534 -11.2402
ltibia 41.6484
lfoot -9.91371 -27.602
ltoes -10.1375
613
root 0.403748 17.8892 -6.93674 1.72864 -38.0771 362.085
lowerback 2.94286 -0.479124 0.695256
upperback 3.13198 -0.720857 4.28002
thorax 1.61773 -0.417701 4.03118
lowerneck -19.1244 -0.229847 -5.77254
upperneck 31.5205 -0.480776 5.44269
head 13.9512 -0.233649 3.09092
rclavicle -3.97569e-014 -1.74931e-014
rhumerus -34.6941 -13.9421 -58.6534
rradius 30.3827
rwrist -12.0747
rhand -12.1762 8.71299
rfingers 7.12502
rthumb 13.8872 -20.8033
lclavicle -3.97569e-014 -1.74931e-014
lhumerus -38.7854 19.1127 77.2445
lradius 33.0177
lwrist -12.8795
lhand -0.198256 36.786
lfingers 7.12502
lthumb 25.4005 65.1139
rfemur -18.1539 6.17104 11.989
rtibia 27.4325
rfoot -21.7374 2.61136
rtoes -28.6401
lfemur -14.5384 -4.41128 -11.8694
ltibia 41.837
lfoot -7.93716 -29.2819
ltoes -7.02841
614
root 0.467969 17.8834 -6.95337 1.72221 -39.0393 361.795
lowerback 3.00001 -0.529509 0.982443
upperback 3.13079 -0.783138 4.26568
thorax 1.58438 -0.443708 3.85521
lowerneck -18.7125 -0.0840438 -5.22639
upperneck 31.4856 -0.318222 4.93419
head 13.833 -0.174919 2.80914
rclavicle -1.82882e-014 -3.81667e-014
rhumerus -34.8034 -13.9064 -58.628
rradius 30.7332
rwrist -12.2396
rhand -12.0856 8.57244
rfingers 7.12502
rthumb 13.9745 -20.9379
lclavicle -1.82882e-014 -3.81667e-014
lhumerus -38.7815 19.5435 77.228
lradius 31.2228
lwrist -14.1676
lhand 0.601663 35.9864
lfingers 7.12502
lthumb 26.1665 64.2031
rfemur -18.4106 6.69848 12.1301
rtibia 27.5701
rfoot -21.6845 2.62383
rtoes -28.6853
lfemur -13.9139 -5.12044 -11.7508
ltibia 41.8356
lfoot -6.56722 -30.8609
ltoes -6.75668
615
root 0.532708 17.8734 -6.96396 1.83773 -40.1642 361.382
lowerback 2.96445 -0.64289 1.36206
upperback 3.15103 -0.933654 4.2842
thorax 1.62872 -0.513457 3.66176
lowerneck -18.5441 0.270261 -4.31115
upperneck 31.5791 0.161034 4.06167
head 13.809 0.015257 2.3778
rclavicle -9.14409e-014 6.36111e-014
rhumerus -34.857 -13.2524 -58.8982
rradius 31.3291
rwrist -12.9371
rhand -12.3172 8.45692
rfingers 7.12502
rthumb 13.7513 -21.0687
lclavicle -9.14409e-014 6.36111e-014
lhumerus -39.0181 20.279 76.9932
lradius 29.7608
lwrist -15.6504
lhand 2.71806 35.1356
lfingers 7.12502
lthumb 28.1911 63.0356
rfemur -18.7959 6.97011 12.3577
rtibia 27.6891
rfoot -21.5107 3.20013
rtoes -28.2964
lfemur -13.1587 -5.60346 -11.5924
ltibia 41.6435
lfoot -5.27546 -32.1481
ltoes -2.94069
616
root 0.594882 17.8586 -6.97478 1.83764 -41.3749 361.324
lowerback 2.8389 -0.66881 1.36506
upperback 3.13953 -0.974517 4.29952
thorax 1.68973 -0.534827 3.67493
lowerneck -18.416 0.553572 -3.938
upperneck 31.6467 0.571126 3.65365
head 13.7912 0.175842 2.21686
rclavicle 7.71285e-014 -1.59028e-014
rhumerus -34.7441 -13.2364 -58.8042
rradius 31.4752
rwrist -13.1124
rhand -12.3827 8.91752
rfingers 7.12502
rthumb 13.6882 -20.6123
lclavicle 7.71285e-014 -1.59028e-014
lhumerus -39.1908 20.6515 77.1302
lradius 28.3757
lwrist -16.2993
lhand 4.40729 34.4869
lfingers 7.12502
lthumb 29.8045 62.1094
rfemur -19.3637 7.0604 12.2973
rtibia 27.9072
rfoot -21.5639 3.85207
rtoes -29.3877
lfemur -12.453 -6.01459 -11.8069
ltibia 41.2965
lfoot -3.71441 -33.1392
ltoes 0.811427
